<svg width="7" height="8" viewBox="0 0 7 8" fill="none" xmlns="http://www.w3.org/2000/svg">
<path d="M6.0497 5.49809C5.78618 5.98167 5.38461 6.37505 4.89663 6.62764C4.34179 6.90902 3.72607 7.04771 3.10469 7.03128H0.835938V0.626311H3.10469C3.72499 0.610046 4.33994 0.745343 4.89663 1.02056C5.38452 1.26745 5.78652 1.65688 6.0497 2.1376C6.31207 2.65853 6.44877 3.2341 6.44877 3.81784C6.44877 4.40159 6.31207 4.97716 6.0497 5.49809ZM4.59122 5.34478C4.955 4.91927 5.155 4.37704 5.155 3.81628C5.155 3.25552 4.955 2.71329 4.59122 2.28779C4.15153 1.90239 3.57814 1.70674 2.99561 1.74335H2.11055V5.88921H2.99561C3.57814 5.92581 4.15153 5.73017 4.59122 5.34478Z" fill="#AFB1B8"/>
</svg>
