<svg width="6" height="8" viewBox="0 0 6 8" fill="none" xmlns="http://www.w3.org/2000/svg">
<path d="M3.97245 7.03129L2.47968 4.52813H1.91873V7.03129H0.634766V0.62633H3.06557C3.67829 0.583382 4.28404 0.77827 4.75778 1.17077C5.09758 1.51838 5.30253 1.97644 5.33567 2.46236C5.36881 2.94828 5.22797 3.43011 4.93854 3.82099C4.63865 4.16595 4.22898 4.39593 3.77923 4.47181L5.3686 7.03129H3.97245ZM1.91873 3.65515H2.96896C3.6982 3.65515 4.06282 3.33183 4.06282 2.68518C4.07026 2.55313 4.05028 2.42096 4.00414 2.29707C3.958 2.17319 3.88672 2.06028 3.79481 1.96552C3.56436 1.77309 3.26757 1.67976 2.96896 1.70582H1.90626L1.91873 3.65515Z" fill="#AFB1B8"/>
</svg>
