<svg width="5" height="8" viewBox="0 0 5 8" fill="none" xmlns="http://www.w3.org/2000/svg">
<path d="M4.48764 4.27777C4.71752 4.56345 4.83998 4.92122 4.83356 5.28842C4.84529 5.52795 4.8032 5.76707 4.71042 5.98805C4.61763 6.20903 4.47652 6.40623 4.29754 6.56504C3.85096 6.90368 3.29769 7.06921 2.73933 7.03125H0V0.626291H2.68323C3.21289 0.590912 3.73833 0.741328 4.16977 1.05183C4.34305 1.19745 4.48026 1.3815 4.57058 1.58947C4.6609 1.79744 4.70185 2.02364 4.69021 2.25022C4.70595 2.60353 4.59543 2.95087 4.37857 3.22958C4.17037 3.48407 3.88265 3.66048 3.56206 3.73021C3.92548 3.7968 4.25352 3.99086 4.48764 4.27777ZM1.27461 3.31093H2.42146C2.6821 3.33028 2.94097 3.25475 3.1507 3.09816C3.23681 3.01981 3.3038 2.92261 3.34649 2.8141C3.38918 2.70558 3.40643 2.58865 3.39689 2.47237C3.40499 2.35651 3.38738 2.24028 3.34535 2.13207C3.30332 2.02385 3.2379 1.92635 3.15381 1.84658C2.93781 1.68557 2.6709 1.60884 2.40276 1.63068H1.27461V3.31093ZM3.26289 5.76715C3.35493 5.68695 3.42729 5.58649 3.47432 5.4736C3.52134 5.36072 3.54178 5.23845 3.53402 5.11633C3.54104 4.99279 3.51967 4.86928 3.47158 4.75535C3.42349 4.64142 3.34995 4.54011 3.25666 4.45925C3.03228 4.29224 2.75632 4.21023 2.47755 4.22771H1.27461V5.98931H2.49313C2.7674 6.00521 3.03889 5.92685 3.26289 5.76715Z" fill="#AFB1B8"/>
</svg>
