<!-- Generated by IcoMoon.io -->
<svg version="1.1" xmlns="http://www.w3.org/2000/svg" width="58" height="32" viewBox="0 0 58 32">
<title>Client-6</title>
<path fill="#afb1b8" d="M29.303 14.156c-0.137-0.199-0.202-0.435-0.186-0.672v-0.974c0-0.299 0.062-0.525 0.185-0.681s0.336-0.233 0.636-0.232c0.283 0 0.483 0.066 0.602 0.198 0.129 0.169 0.192 0.375 0.178 0.583v0.229h-0.505v-0.232c0.002-0.076-0.003-0.152-0.015-0.227-0.007-0.051-0.033-0.099-0.072-0.135-0.052-0.039-0.117-0.057-0.183-0.053-0.069-0.005-0.138 0.015-0.193 0.055-0.044 0.040-0.073 0.092-0.084 0.149-0.015 0.079-0.021 0.16-0.020 0.241v1.182c-0.008 0.114 0.014 0.228 0.065 0.332 0.025 0.035 0.060 0.063 0.101 0.080s0.086 0.024 0.13 0.019c0.065 0.005 0.129-0.014 0.179-0.053 0.041-0.039 0.068-0.089 0.075-0.144 0.012-0.078 0.017-0.158 0.016-0.237v-0.24h0.505v0.219c0.014 0.217-0.047 0.432-0.175 0.612-0.116 0.145-0.314 0.217-0.605 0.217s-0.511-0.077-0.635-0.238z"></path>
<path fill="#afb1b8" d="M31.408 14.166c-0.128-0.152-0.192-0.373-0.192-0.665v-1.024c0-0.289 0.064-0.508 0.192-0.657s0.341-0.223 0.64-0.222c0.297 0 0.51 0.074 0.637 0.222s0.192 0.368 0.192 0.657v1.024c0 0.289-0.065 0.511-0.195 0.664s-0.341 0.229-0.635 0.229-0.512-0.077-0.64-0.228zM32.283 13.92c0.046-0.095 0.067-0.199 0.061-0.303v-1.254c0.006-0.102-0.015-0.204-0.060-0.297-0.026-0.036-0.061-0.064-0.103-0.082s-0.088-0.024-0.133-0.017c-0.045-0.006-0.092 0-0.134 0.018s-0.078 0.046-0.104 0.081c-0.046 0.093-0.067 0.195-0.061 0.297v1.26c-0.006 0.104 0.015 0.208 0.061 0.303 0.029 0.032 0.066 0.058 0.107 0.075s0.085 0.027 0.13 0.027 0.089-0.009 0.13-0.027c0.041-0.018 0.077-0.043 0.107-0.075v-0.006z"></path>
<path fill="#afb1b8" d="M33.486 11.628h0.544l0.409 1.89 0.419-1.89h0.53l0.053 2.728h-0.391l-0.042-1.896-0.404 1.896h-0.314l-0.419-1.903-0.039 1.903h-0.395l0.049-2.728z"></path>
<path fill="#afb1b8" d="M36.051 11.628h0.848c0.489 0 0.732 0.258 0.732 0.775 0 0.495-0.257 0.742-0.771 0.741h-0.289v1.213h-0.523l0.003-2.728zM36.775 12.794c0.052 0.006 0.104 0.002 0.154-0.013s0.095-0.040 0.134-0.073c0.060-0.092 0.087-0.2 0.075-0.308 0.003-0.083-0.006-0.166-0.025-0.248-0.008-0.027-0.021-0.053-0.039-0.075s-0.041-0.041-0.066-0.055c-0.073-0.033-0.153-0.048-0.233-0.044h-0.203v0.815h0.203z"></path>
<path fill="#afb1b8" d="M38.386 11.628h0.562l0.577 2.728h-0.488l-0.114-0.629h-0.501l-0.117 0.629h-0.495l0.577-2.728zM38.866 13.411l-0.196-1.145-0.196 1.145h0.392z"></path>
<path fill="#afb1b8" d="M39.99 11.628h0.366l0.701 1.556v-1.556h0.434v2.728h-0.348l-0.705-1.625v1.625h-0.449l0.001-2.728z"></path>
<path fill="#afb1b8" d="M42.509 13.316l-0.583-1.684h0.491l0.356 1.082 0.334-1.082h0.48l-0.576 1.684v1.040h-0.502v-1.040z"></path>
<path fill="#afb1b8" d="M30.111 15.549v0.143h-0.427v1.109h-0.179v-1.109h-0.429v-0.143h1.035z"></path>
<path fill="#afb1b8" d="M31.45 16.8h-0.138c-0.014 0.001-0.028-0.003-0.039-0.012-0.010-0.007-0.018-0.017-0.023-0.029l-0.123-0.297h-0.592l-0.123 0.297c-0.004 0.012-0.010 0.024-0.019 0.034-0.011 0.008-0.025 0.012-0.039 0.012h-0.138l0.523-1.251h0.182l0.53 1.246zM30.583 16.336h0.494l-0.209-0.509c-0.015-0.039-0.028-0.078-0.039-0.118-0.007 0.024-0.014 0.047-0.020 0.066l-0.019 0.053-0.207 0.508z"></path>
<path fill="#afb1b8" d="M32.352 16.677c0.033 0.002 0.066 0.002 0.098 0 0.028-0.003 0.056-0.008 0.084-0.015 0.026-0.006 0.051-0.014 0.075-0.023 0.023-0.009 0.046-0.020 0.070-0.031v-0.281h-0.209c-0.005 0-0.010-0-0.015-0.002s-0.009-0.004-0.013-0.008c-0.003-0.003-0.006-0.006-0.008-0.010s-0.003-0.008-0.002-0.012v-0.096h0.406v0.48c-0.033 0.022-0.068 0.042-0.105 0.059s-0.076 0.032-0.116 0.043c-0.043 0.012-0.087 0.021-0.131 0.026-0.051 0.005-0.102 0.008-0.153 0.008-0.090 0.001-0.18-0.015-0.264-0.047-0.078-0.030-0.15-0.074-0.209-0.131-0.058-0.057-0.104-0.124-0.135-0.198-0.033-0.083-0.049-0.171-0.048-0.26-0.001-0.089 0.015-0.178 0.047-0.262 0.030-0.074 0.076-0.142 0.135-0.198s0.131-0.1 0.209-0.13c0.090-0.032 0.185-0.048 0.28-0.047 0.049-0 0.097 0.004 0.145 0.011 0.043 0.007 0.084 0.017 0.125 0.032 0.037 0.013 0.072 0.030 0.105 0.050s0.063 0.041 0.091 0.065l-0.050 0.077c-0.004 0.007-0.010 0.013-0.017 0.017s-0.015 0.006-0.024 0.007c-0.011-0-0.023-0.004-0.032-0.010-0.016-0.008-0.032-0.018-0.051-0.030-0.022-0.013-0.046-0.024-0.070-0.034-0.031-0.012-0.063-0.021-0.096-0.028-0.044-0.008-0.088-0.011-0.133-0.011-0.069-0.001-0.138 0.011-0.202 0.035-0.058 0.022-0.111 0.056-0.154 0.099-0.043 0.045-0.076 0.098-0.097 0.156-0.047 0.136-0.047 0.282 0 0.417 0.023 0.059 0.059 0.113 0.105 0.158 0.043 0.043 0.095 0.077 0.153 0.099 0.066 0.022 0.137 0.030 0.207 0.025z"></path>
<path fill="#afb1b8" d="M34.020 16.658h0.571v0.143h-0.746v-1.251h0.179l-0.004 1.109z"></path>
<path fill="#afb1b8" d="M35.186 16.8h-0.179v-1.251h0.179v1.251z"></path>
<path fill="#afb1b8" d="M35.851 15.555c0.010 0.006 0.020 0.014 0.027 0.023l0.765 0.943c-0.001-0.015-0.001-0.030 0-0.045s0-0.028 0-0.041v-0.892h0.156v1.256h-0.090c-0.013 0.001-0.027-0.001-0.039-0.007-0.011-0.006-0.020-0.014-0.028-0.024l-0.764-0.942c0 0.015 0 0.029 0 0.043s0 0.027 0 0.039v0.892h-0.15v-1.251h0.093c0.010 0 0.020 0.002 0.029 0.006z"></path>
<path fill="#afb1b8" d="M38.117 15.549v0.138h-0.634v0.413h0.514v0.133h-0.514v0.427h0.634v0.138h-0.818v-1.248h0.818z"></path>
<path fill="#afb1b8" d="M19.364 7.822l7.946 2.136v7.485l-7.946-2.135v-7.486zM18.855 7.184v8.487l8.964 2.41v-8.486l-8.964-2.411z"></path>
<path fill="#afb1b8" d="M23.659 22.021l-8.965-2.412v-8.486l8.965 2.411v8.487z"></path>
<path fill="#afb1b8" d="M19.003 7.726l7.843 2.109-3.335 3.158-7.844-2.11 3.336-3.157zM18.855 7.184l-4.161 3.939 8.965 2.411 4.16-3.939-8.964-2.411z"></path>
<path fill="#afb1b8" d="M24.164 21.544l3.655-3.461-3.655-0.984v4.445z"></path>
</svg>
